<svg version="1.2" xmlns="http://www.w3.org/2000/svg" viewBox="0 0 2667 2868" width="1000" height="1075">
	<style>
		.s0 { fill: #ffffff } 
	</style>
	<path class="s0" d="m1360 0c0 200.31 0 400.62 0 607-31.68 1.49-31.68 1.49-64 3-67.44 5.57-133.8 18.53-198 40q-1.05 0.35-2.14 0.71c-30.4 10.18-59.99 22.17-88.96 35.92q-4.19 1.98-8.4 3.92c-11.91 5.54-23.45 11.63-34.93 18.02q-3.56 1.98-7.15 3.92c-36.75 20.02-71.33 43.95-104.42 69.51q-1.02 0.78-2.07 1.59c-7.14 5.5-14.09 11.17-20.9 17.08q-5.11 4.43-10.41 8.64c-6.06 4.92-11.68 10.28-17.33 15.65-3.26 3.09-6.57 6.11-9.9 9.13-6.48 5.9-12.69 12.06-18.87 18.26q-2.77 2.77-5.54 5.53c-5.34 5.34-10.64 10.67-15.54 16.43-2.35 2.75-4.84 5.36-7.32 8-4.46 4.8-8.69 9.72-12.79 14.83-2.14 2.63-4.34 5.19-6.57 7.75-6.73 7.73-12.96 15.77-19.12 23.95q-2.41 3.17-4.86 6.32c-26.9 34.67-50.15 72.14-70.78 110.84q-0.74 1.38-1.5 2.8c-20.44 38.39-37.4 78.07-51.5 119.2q-0.34 0.98-0.68 1.99c-26.58 77.23-42.29 161.03-42.52 242.82q-0.01 2.35-0.02 4.7-0.03 7.46-0.03 14.93 0 1.26 0 2.57c-0.01 25.7 0.32 51.24 3.02 76.82q0.34 3.28 0.67 6.57c5.88 58.7 18.43 116.49 36.56 172.6q0.33 1.02 0.67 2.07c16.39 50.77 38.24 100.24 64.9 146.44q1.89 3.3 3.72 6.63c9.6 17.51 20.39 34.42 31.71 50.86 0.77 1.12 0.77 1.12 1.56 2.26 12.08 17.51 24.51 34.66 38.06 51.06q2.76 3.38 5.44 6.81c7.32 9.16 15.07 17.98 22.95 26.66q2.62 2.92 5.18 5.9c10.11 11.54 20.85 22.45 31.68 33.31q0.88 0.88 1.79 1.79c5.72 5.74 11.42 11.45 17.6 16.71 2.94 2.53 5.73 5.21 8.55 7.88 4.99 4.66 10.09 9.11 15.42 13.39q3.77 3.05 7.45 6.21c7.28 6.22 14.74 12.17 22.32 18.02q1.19 0.92 2.41 1.87c10.54 8.14 21.13 16.13 32.2 23.53q4.21 2.83 8.4 5.68c28.79 19.46 58.56 37.7 89.86 52.87q3.67 1.82 7.31 3.7c46.79 23.97 96.99 42.95 147.82 56.35q1.08 0.29 2.2 0.58c71.56 18.91 142.98 26.47 216.8 29.42 0 200.31 0 400.62 0 607-48.1 0-48.1 0-63.31-0.75q-1.38-0.06-2.79-0.13c-101.38-4.76-201.63-20.13-620.06-172.54q-4.65-2.58-9.32-5.13c-14.36-7.89-28.5-16.09-42.5-24.61q-4.49-2.73-8.99-5.44-18.76-11.31-37.03-23.4-1.3-0.86-2.65-1.75c-11.53-7.63-23-15.35-34.35-23.25q-1-0.7-2.03-1.41c-16.66-11.63-32.97-23.72-49.06-36.12q-2.64-2.03-5.3-4.05c-6.63-5.06-13.13-10.24-19.59-15.52q-6.63-5.41-13.4-10.65c-4.92-3.83-9.6-7.85-14.2-12.07-2.55-2.3-5.18-4.46-7.86-6.62-4.83-3.91-9.44-8.02-14.01-12.23q-3.21-2.93-6.49-5.77c-3.9-3.39-7.7-6.88-11.51-10.38q-4.62-4.25-9.3-8.43c-14.65-13.19-28.66-27-42.58-40.95q-4.07-4.08-8.15-8.14-3.19-3.19-6.37-6.38-1.51-1.5-3.01-3c-5.06-5.05-10.02-10.12-14.64-15.57-1.59-1.82-3.27-3.52-5-5.21-2.99-2.95-5.75-6.03-8.49-9.21q-2.94-3.33-5.96-6.57c-4.79-5.16-9.32-10.45-13.74-15.94-2.51-3.02-5.13-5.9-7.81-8.78-4.18-4.5-8.15-9.12-12-13.9q-3.75-4.63-7.56-9.22-9.41-11.36-18.48-23-2.41-3.1-4.83-6.19-18.35-23.45-35.63-47.69-0.6-0.84-1.22-1.71c-7.96-11.18-15.74-22.48-23.42-33.85q-2.78-4.12-5.58-8.23c-7.07-10.44-13.81-21.01-20.21-31.87-2.34-3.98-4.78-7.89-7.26-11.78-17.69-28.08-33.69-57.28-48.87-86.78q-2.53-4.86-5.13-9.7c-13.75-25.72-25.72-52.33-37.31-79.08-0.5-1.14-0.5-1.14-1-2.31-35.51-81.93-63.3-167.16-17.43-1095.64 7.07-17.85 14.68-35.48 22.43-53.05q0.49-1.1 0.99-2.24c16.57-37.55 34.51-74.58 54.87-110.23q3.63-6.37 7.1-12.83c6.58-12.17 13.79-23.95 21.02-35.74q3.05-4.99 6-10.03c8.47-14.48 17.83-28.33 27.19-42.23q4.54-6.76 9.03-13.55c17.11-25.85 35.8-50.68 54.8-75.15q0.63-0.81 1.27-1.65c9.99-12.86 20.34-25.42 30.9-37.81q4.26-5.03 8.39-10.16c3.88-4.77 7.95-9.31 12.11-13.83q2.93-3.21 5.77-6.49c3.39-3.9 6.88-7.7 10.38-11.51q4.25-4.62 8.43-9.3c13.33-14.8 27.28-28.94 41.38-43.01q4.16-4.16 8.32-8.33 3.26-3.26 6.52-6.51 1.53-1.54 3.07-3.07c5.11-5.12 10.23-10.16 15.75-14.84 1.82-1.59 3.52-3.26 5.21-4.99 2.95-2.99 6.03-5.75 9.21-8.49q3.33-2.94 6.57-5.96c5.18-4.81 10.49-9.37 16.01-13.8 2.82-2.34 5.52-4.77 8.21-7.25 4.42-4.06 8.96-7.89 13.63-11.66q3.82-3.12 7.56-6.33c6.72-5.74 13.6-11.23 20.57-16.66q2.51-1.95 5-3.92c16.28-12.89 32.82-25.4 49.74-37.43q1.01-0.72 2.06-1.47 6.28-4.46 12.58-8.87 2.47-1.74 4.94-3.48c13.9-9.83 28.04-19.2 42.44-28.29q4.17-2.65 8.32-5.34c38.24-24.69 78.17-46.81 118.66-67.55q0.87-0.44 1.76-0.9c20.81-10.65 41.86-20.64 63.24-30.1q1.09-0.48 2.21-0.98c78.51-34.8 159.99-62.36 513.79-121.02q1.05-0.06 2.14-0.12c21.96-1.19 43.84-0.88 65.86-0.88z"/>
	<path class="s0" d="m1375 1155c426.36 0 852.72 0 1292 0 0 426.36 0 852.72 0 1292-203.28 0-406.56 0-616 0 0-223.41 0-446.82 0-677-223.08 0-446.16 0-676 0 0-202.95 0-405.9 0-615z"/>
</svg>